<mxfile host="app.diagrams.net" modified="2023-04-18T07:41:58.804Z" agent="Mozilla/5.0 (Windows NT 10.0; Win64; x64) AppleWebKit/537.36 (KHTML, like Gecko) Chrome/111.0.0.0 Safari/537.36" etag="CGbY8LIwVnZyx26Kk5nx" version="21.1.0" type="device">
  <diagram name="Page-1" id="K6oLoBRxGBAq6MTEH1fe">
    <mxGraphModel dx="1300" dy="721" grid="1" gridSize="10" guides="1" tooltips="1" connect="1" arrows="1" fold="1" page="1" pageScale="1" pageWidth="850" pageHeight="1100" math="0" shadow="0">
      <root>
        <mxCell id="0" />
        <mxCell id="1" parent="0" />
        <mxCell id="qlbYVOJUakaDZYxon6Il-9" style="rounded=0;orthogonalLoop=1;jettySize=auto;html=1;exitX=0.5;exitY=0.5;exitDx=0;exitDy=0;exitPerimeter=0;entryX=0;entryY=0.5;entryDx=0;entryDy=0;" edge="1" parent="1" source="qlbYVOJUakaDZYxon6Il-1" target="qlbYVOJUakaDZYxon6Il-3">
          <mxGeometry relative="1" as="geometry" />
        </mxCell>
        <mxCell id="qlbYVOJUakaDZYxon6Il-10" style="rounded=0;orthogonalLoop=1;jettySize=auto;html=1;exitX=0.5;exitY=0.5;exitDx=0;exitDy=0;exitPerimeter=0;entryX=0;entryY=0.668;entryDx=0;entryDy=0;entryPerimeter=0;" edge="1" parent="1" source="qlbYVOJUakaDZYxon6Il-1" target="qlbYVOJUakaDZYxon6Il-5">
          <mxGeometry relative="1" as="geometry" />
        </mxCell>
        <mxCell id="qlbYVOJUakaDZYxon6Il-19" style="rounded=0;orthogonalLoop=1;jettySize=auto;html=1;exitX=0.5;exitY=0.5;exitDx=0;exitDy=0;exitPerimeter=0;entryX=0;entryY=0.5;entryDx=0;entryDy=0;" edge="1" parent="1" source="qlbYVOJUakaDZYxon6Il-1" target="qlbYVOJUakaDZYxon6Il-8">
          <mxGeometry relative="1" as="geometry" />
        </mxCell>
        <mxCell id="qlbYVOJUakaDZYxon6Il-1" value="Penggalang" style="shape=umlActor;verticalLabelPosition=bottom;verticalAlign=top;html=1;outlineConnect=0;" vertex="1" parent="1">
          <mxGeometry x="50" y="310" width="30" height="60" as="geometry" />
        </mxCell>
        <mxCell id="qlbYVOJUakaDZYxon6Il-6" style="rounded=0;orthogonalLoop=1;jettySize=auto;html=1;exitX=0.5;exitY=0.5;exitDx=0;exitDy=0;exitPerimeter=0;" edge="1" parent="1" source="qlbYVOJUakaDZYxon6Il-1" target="qlbYVOJUakaDZYxon6Il-4">
          <mxGeometry relative="1" as="geometry" />
        </mxCell>
        <mxCell id="qlbYVOJUakaDZYxon6Il-7" style="rounded=0;orthogonalLoop=1;jettySize=auto;html=1;exitX=0.5;exitY=0.5;exitDx=0;exitDy=0;exitPerimeter=0;entryX=1;entryY=0.5;entryDx=0;entryDy=0;" edge="1" parent="1" source="qlbYVOJUakaDZYxon6Il-2" target="qlbYVOJUakaDZYxon6Il-5">
          <mxGeometry relative="1" as="geometry" />
        </mxCell>
        <mxCell id="qlbYVOJUakaDZYxon6Il-13" style="rounded=0;orthogonalLoop=1;jettySize=auto;html=1;exitX=0.5;exitY=0.5;exitDx=0;exitDy=0;exitPerimeter=0;entryX=1.014;entryY=0.341;entryDx=0;entryDy=0;entryPerimeter=0;" edge="1" parent="1" source="qlbYVOJUakaDZYxon6Il-2" target="qlbYVOJUakaDZYxon6Il-12">
          <mxGeometry relative="1" as="geometry" />
        </mxCell>
        <mxCell id="qlbYVOJUakaDZYxon6Il-2" value="Donatur" style="shape=umlActor;verticalLabelPosition=bottom;verticalAlign=top;html=1;outlineConnect=0;" vertex="1" parent="1">
          <mxGeometry x="690" y="310" width="30" height="60" as="geometry" />
        </mxCell>
        <mxCell id="qlbYVOJUakaDZYxon6Il-3" value="Login" style="ellipse;whiteSpace=wrap;html=1;" vertex="1" parent="1">
          <mxGeometry x="350" y="280" width="120" height="80" as="geometry" />
        </mxCell>
        <mxCell id="qlbYVOJUakaDZYxon6Il-4" value="Mengelola Data Campaign" style="ellipse;whiteSpace=wrap;html=1;" vertex="1" parent="1">
          <mxGeometry x="270" y="380" width="120" height="80" as="geometry" />
        </mxCell>
        <mxCell id="qlbYVOJUakaDZYxon6Il-5" value="Register" style="ellipse;whiteSpace=wrap;html=1;" vertex="1" parent="1">
          <mxGeometry x="350" y="170" width="120" height="80" as="geometry" />
        </mxCell>
        <mxCell id="qlbYVOJUakaDZYxon6Il-8" value="Melakukan Transaksi" style="ellipse;whiteSpace=wrap;html=1;" vertex="1" parent="1">
          <mxGeometry x="340" y="480" width="120" height="80" as="geometry" />
        </mxCell>
        <mxCell id="qlbYVOJUakaDZYxon6Il-11" style="rounded=0;orthogonalLoop=1;jettySize=auto;html=1;entryX=1;entryY=0.5;entryDx=0;entryDy=0;exitX=0.5;exitY=0.5;exitDx=0;exitDy=0;exitPerimeter=0;" edge="1" parent="1" source="qlbYVOJUakaDZYxon6Il-2" target="qlbYVOJUakaDZYxon6Il-3">
          <mxGeometry relative="1" as="geometry">
            <mxPoint x="700" y="340" as="sourcePoint" />
            <mxPoint x="480" y="220" as="targetPoint" />
          </mxGeometry>
        </mxCell>
        <mxCell id="qlbYVOJUakaDZYxon6Il-12" value="Melihat data Campaign" style="ellipse;whiteSpace=wrap;html=1;" vertex="1" parent="1">
          <mxGeometry x="490" y="370" width="120" height="80" as="geometry" />
        </mxCell>
        <mxCell id="qlbYVOJUakaDZYxon6Il-14" value="" style="endArrow=classic;html=1;rounded=0;entryX=1;entryY=0;entryDx=0;entryDy=0;exitX=0.256;exitY=0.948;exitDx=0;exitDy=0;exitPerimeter=0;" edge="1" parent="1" source="qlbYVOJUakaDZYxon6Il-12" target="qlbYVOJUakaDZYxon6Il-8">
          <mxGeometry relative="1" as="geometry">
            <mxPoint x="370" y="370" as="sourcePoint" />
            <mxPoint x="470" y="370" as="targetPoint" />
          </mxGeometry>
        </mxCell>
        <mxCell id="qlbYVOJUakaDZYxon6Il-15" value="extend" style="edgeLabel;resizable=0;html=1;align=center;verticalAlign=middle;" connectable="0" vertex="1" parent="qlbYVOJUakaDZYxon6Il-14">
          <mxGeometry relative="1" as="geometry" />
        </mxCell>
        <mxCell id="qlbYVOJUakaDZYxon6Il-16" value="Melihat data transaksi" style="ellipse;whiteSpace=wrap;html=1;" vertex="1" parent="1">
          <mxGeometry x="340" y="610" width="120" height="80" as="geometry" />
        </mxCell>
        <mxCell id="qlbYVOJUakaDZYxon6Il-17" value="" style="endArrow=classic;html=1;rounded=0;exitX=0.5;exitY=1;exitDx=0;exitDy=0;" edge="1" parent="1" source="qlbYVOJUakaDZYxon6Il-8" target="qlbYVOJUakaDZYxon6Il-16">
          <mxGeometry relative="1" as="geometry">
            <mxPoint x="531" y="456" as="sourcePoint" />
            <mxPoint x="452" y="502" as="targetPoint" />
            <Array as="points" />
          </mxGeometry>
        </mxCell>
        <mxCell id="qlbYVOJUakaDZYxon6Il-18" value="include" style="edgeLabel;resizable=0;html=1;align=center;verticalAlign=middle;" connectable="0" vertex="1" parent="qlbYVOJUakaDZYxon6Il-17">
          <mxGeometry relative="1" as="geometry" />
        </mxCell>
      </root>
    </mxGraphModel>
  </diagram>
</mxfile>
